<svg xmlns="http://www.w3.org/2000/svg" viewBox="0 0 64 64">
    <g fill="#F5793B" fill-rule="nonzero">
        <path d="M43.518 56.663a43.023 43.023 0 0 1-10.836-2.035 2.457 2.457 0 0 0-1.485 0 43.149 43.149 0 0 1-10.848 2.058C22.604 60.952 28.288 64 32 64c6.095 0 9.652-4.571 11.518-7.337ZM16.28 54.343c-.411-.8-.792-1.635-1.143-2.504a1.143 1.143 0 0 1 1.589-1.485c.235.12.42.318.526.56a31.1 31.1 0 0 0 .971 2.091 2.48 2.48 0 0 0 2.39 1.35 38.463 38.463 0 0 0 5.966-.881.617.617 0 0 0 .126-1.143 54.724 54.724 0 0 1-5.018-2.572A49.755 49.755 0 0 1 4.7 34.351c-1.144 2.22-2 5.24-1.839 8.367-.067 8.33 7.552 11.377 13.418 11.625ZM22.784 16.189A47.207 47.207 0 0 0 6.382 31.277a1.314 1.314 0 0 0 0 1.394 39.114 39.114 0 0 0 5.475 6.858 58.294 58.294 0 0 1-.48-7.555v-2.115c.011-.267.117-.522.297-.72a1.143 1.143 0 0 1 1.966.812v2.046a54.248 54.248 0 0 0 .789 9.235c.09.515.362.981.765 1.315a54.533 54.533 0 0 0 7.613 5.269 47.778 47.778 0 0 0 20.517 6.607 2.515 2.515 0 0 0 2.343-1.395 38.6 38.6 0 0 0 2.286-5.806.56.56 0 0 0-.88-.606 58.294 58.294 0 0 1-4.835 3.177c-.514.298-1.04.572-1.566.846-.26.138-.562.171-.846.092a1.143 1.143 0 0 1-.194-2.08 41.368 41.368 0 0 0 1.497-.835 54.053 54.053 0 0 0 7.67-5.36c.352-.293.594-.696.686-1.144.519-3.085.771-6.21.754-9.338v-2.48a1.143 1.143 0 0 1 1.795-.95c.246.205.453.525.468.845v2.528A49.755 49.755 0 0 1 47.61 54.32c8.518-.987 11.566-4.034 13.097-8.56 1.516-5.379-.851-9.939-1.531-11.409-.308.479-1.038 1.589-2.192 3.331-.25.402-.536.622-.856.66-.48.058-.806-.115-1.083-.536-.185-.281-.144-.692.124-1.235.126-.199.446-.845.96-1.939.77-1.64.986-4.349-.872-6.624a50.041 50.041 0 0 0-14.162-11.876 87.604 87.604 0 0 0-4.32-2.286c.96-.343 2.023-.686 3.189-.995a67.54 67.54 0 0 1 2.286 1.246 58.953 58.953 0 0 1 6.26 4.189 39.561 39.561 0 0 0-2.934-7.71 2.069 2.069 0 0 0-1.943-1.142c-9.6.47-17.938 5.072-20.849 6.755Zm3.783 7.304a.491.491 0 0 1 .183.811l-2.469 2.47a.491.491 0 0 1-.811-.184l-1.315-3.76a.491.491 0 0 1 .652-.629l3.76 1.292Zm-8.024 8.938a.491.491 0 0 1 0-.88l3.567-1.749a.491.491 0 0 1 .708.434v3.498a.491.491 0 0 1-.708.434l-3.567-1.737Zm8.001 8.07-3.737 1.28a.491.491 0 0 1-.617-.617l1.291-3.76a.491.491 0 0 1 .812-.184l2.469 2.47a.491.491 0 0 1-.218.81Zm7.602 1.337-1.75 3.566a.491.491 0 0 1-.88 0l-1.748-3.566a.491.491 0 0 1 .434-.709H33.7a.491.491 0 0 1 .434.709h.012Zm3.223-1.292a.491.491 0 0 1-.183-.811l2.469-2.469a.491.491 0 0 1 .811.183l1.28 3.669a.491.491 0 0 1-.65.663l-3.727-1.235Zm8.001-8.938a.491.491 0 0 1 0 .88l-3.566 1.749a.491.491 0 0 1-.709-.434v-3.555a.491.491 0 0 1 .709-.434l3.566 1.794Zm-4.275-9.407a.491.491 0 0 1 .617.617l-1.291 3.76a.491.491 0 0 1-.812.184l-2.469-2.47a.491.491 0 0 1 .217-.8l3.738-1.291Zm-2.286 9.773a6.858 6.858 0 1 1-13.716 0 6.858 6.858 0 0 1 13.716 0Zm-4.675-9.819a.491.491 0 0 1-.434.709h-3.498a.491.491 0 0 1-.434-.709l1.749-3.566a.491.491 0 0 1 .868 0l1.75 3.566ZM4.61 29.62a43.435 43.435 0 0 1 7.91-8.905 43.435 43.435 0 0 1 3.783-11.133C7.366 9.905 2.795 16 2.795 21.333c0 3.048.762 6.096 1.815 8.286Z" />
        <path d="M26.67 11.594a.64.64 0 0 0-.137-1.143 43.64 43.64 0 0 0-2.823-.537 1.143 1.143 0 0 1-.72-1.784c.25-.341.667-.517 1.086-.457a46.36 46.36 0 0 1 7.223 1.703c.417.133.864.133 1.28 0a43.115 43.115 0 0 1 10.962-2.068C40.128 2.286 36.32 0 31.747 0 25.652 0 18.79 6.078 15.383 18.286c2-1.516 4.102-2.885 6.28-4.132a54.414 54.414 0 0 1 5.007-2.56ZM51.737 21c2.856 2.524 5.341 5.432 7.439 8.614 1.043-2.038 3.81-9.043 0-14.376-1.524-2.286-5.334-5.333-11.589-5.622 1.702 3.396 2.947 7 3.704 10.722.077.261.232.493.446.663Z" />
    </g>
</svg>